<svg xmlns="http://www.w3.org/2000/svg" width="31" height="34.71" viewBox="0 0 31 34.71">
  <metadata><?xpacket begin="﻿" id="W5M0MpCehiHzreSzNTczkc9d"?>
<x:xmpmeta xmlns:x="adobe:ns:meta/" x:xmptk="Adobe XMP Core 5.6-c142 79.160924, 2017/07/13-01:06:39        ">
   <rdf:RDF xmlns:rdf="http://www.w3.org/1999/02/22-rdf-syntax-ns#">
      <rdf:Description rdf:about=""/>
   </rdf:RDF>
</x:xmpmeta>
                                                                                                    
                                                                                                    
                                                                                                    
                                                                                                    
                                                                                                    
                                                                                                    
                                                                                                    
                                                                                                    
                                                                                                    
                                                                                                    
                                                                                                    
                                                                                                    
                                                                                                    
                                                                                                    
                                                                                                    
                                                                                                    
                                                                                                    
                                                                                                    
                                                                                                    
                                                                                                    
                           
<?xpacket end="w"?></metadata>
<defs>
    <style>
      .cls-1 {
        fill: #fff;
        fill-rule: evenodd;
      }
    </style>
  </defs>
  <path id="Icon" class="cls-1" d="M412.125,8174.08a0.011,0.011,0,0,1-.012.01l0.024-.02a1.708,1.708,0,0,1,1.186-.44,3.073,3.073,0,0,1,1.5.46l19.6,11.2,6.565,3.76c1.874,1.07,1.874,2.82,0,3.9l-6.565,3.75-0.089.05-19.509,11.15a2.586,2.586,0,0,1-2.152.35,1.838,1.838,0,0,1-.537-0.33l-0.026-.03a0.432,0.432,0,0,1-.073-0.07,2.707,2.707,0,0,1-.621-1.9v-29.85a2.707,2.707,0,0,1,.621-1.9,0.587,0.587,0,0,0,.086-0.09l-0.086.09,16.721,16.82-16.721,16.83,22.386-22.53-5.665,5.7Z" transform="translate(-411.406 -8173.63)"/>
</svg>
