<svg xmlns="http://www.w3.org/2000/svg" width="27.844" height="34.43" viewBox="0 0 27.844 34.43">
  <metadata><?xpacket begin="﻿" id="W5M0MpCehiHzreSzNTczkc9d"?>
<x:xmpmeta xmlns:x="adobe:ns:meta/" x:xmptk="Adobe XMP Core 5.6-c142 79.160924, 2017/07/13-01:06:39        ">
   <rdf:RDF xmlns:rdf="http://www.w3.org/1999/02/22-rdf-syntax-ns#">
      <rdf:Description rdf:about=""/>
   </rdf:RDF>
</x:xmpmeta>
                                                                                                    
                                                                                                    
                                                                                                    
                                                                                                    
                                                                                                    
                                                                                                    
                                                                                                    
                                                                                                    
                                                                                                    
                                                                                                    
                                                                                                    
                                                                                                    
                                                                                                    
                                                                                                    
                                                                                                    
                                                                                                    
                                                                                                    
                                                                                                    
                                                                                                    
                                                                                                    
                           
<?xpacket end="w"?></metadata>
<defs>
    <style>
      .cls-1 {
        fill: #fff;
        fill-rule: evenodd;
      }
    </style>
  </defs>
  <path id="Shape" class="cls-1" d="M677.268,8190.7a7.842,7.842,0,0,1,3.7-6.57,7.948,7.948,0,0,0-6.274-3.41c-2.638-.28-5.2,1.59-6.543,1.59-1.371,0-3.441-1.56-5.672-1.52a8.357,8.357,0,0,0-7.03,4.32c-3.04,5.3-.773,13.08,2.14,17.36,1.457,2.1,3.159,4.44,5.388,4.36,2.18-.09,2.994-1.4,5.625-1.4,2.607,0,3.372,1.4,5.644,1.34,2.34-.03,3.813-2.1,5.219-4.22a17.356,17.356,0,0,0,2.387-4.89A7.556,7.556,0,0,1,677.268,8190.7Zm-4.294-12.79a7.763,7.763,0,0,0,1.753-5.53,7.822,7.822,0,0,0-5.042,2.63,7.361,7.361,0,0,0-1.8,5.32A6.441,6.441,0,0,0,672.974,8177.91Z" transform="translate(-654 -8172.38)"/>
</svg>
