<svg xmlns="http://www.w3.org/2000/svg" xmlns:xlink="http://www.w3.org/1999/xlink" width="15.219" height="15.72" viewBox="0 0 15.219 15.72">
  <metadata><?xpacket begin="﻿" id="W5M0MpCehiHzreSzNTczkc9d"?>
<x:xmpmeta xmlns:x="adobe:ns:meta/" x:xmptk="Adobe XMP Core 5.6-c142 79.160924, 2017/07/13-01:06:39        ">
   <rdf:RDF xmlns:rdf="http://www.w3.org/1999/02/22-rdf-syntax-ns#">
      <rdf:Description rdf:about=""/>
   </rdf:RDF>
</x:xmpmeta>
                                                                                                    
                                                                                                    
                                                                                                    
                                                                                                    
                                                                                                    
                                                                                                    
                                                                                                    
                                                                                                    
                                                                                                    
                                                                                                    
                                                                                                    
                                                                                                    
                                                                                                    
                                                                                                    
                                                                                                    
                                                                                                    
                                                                                                    
                                                                                                    
                                                                                                    
                                                                                                    
                           
<?xpacket end="w"?></metadata>
<defs>
    <style>
      .cls-1 {
        fill: #424b5a;
        fill-rule: evenodd;
        filter: url(#filter);
      }
    </style>
    <filter id="filter" x="479.781" y="8243" width="15.219" height="15.72" filterUnits="userSpaceOnUse">
      <feFlood result="flood" flood-color="#8a102e"/>
      <feComposite result="composite" operator="in" in2="SourceGraphic"/>
      <feBlend result="blend" in2="SourceGraphic"/>
    </filter>
  </defs>
  <path id="Imstagram" class="cls-1" d="M495,8249.24v6.44a3,3,0,0,1-2.939,3.05h-9.327a3,3,0,0,1-2.938-3.05v-9.65a3,3,0,0,1,2.938-3.04h9.327a3,3,0,0,1,2.939,3.04v3.21Zm-7.6,4.39a2.727,2.727,0,0,0,2.677-2.77,2.86,2.86,0,0,0-.506-1.62,2.621,2.621,0,0,0-4.339,0,2.837,2.837,0,0,0-.507,1.62A2.725,2.725,0,0,0,487.4,8253.63Zm5.844-6.16v-2.67l-0.336.01h-2.242l0.009,2.67Zm-1.685,3.39a4.16,4.16,0,1,1-8.316,0,4.445,4.445,0,0,1,.306-1.62h-2.269v6.44a1.481,1.481,0,0,0,1.457,1.51h9.326a1.481,1.481,0,0,0,1.457-1.51v-6.44h-2.27A4.405,4.405,0,0,1,491.555,8250.86Z" transform="translate(-479.781 -8243)"/>
</svg>
