<svg xmlns="http://www.w3.org/2000/svg" xmlns:xlink="http://www.w3.org/1999/xlink" width="22.438" height="17" viewBox="0 0 22.438 17">
  <metadata><?xpacket begin="﻿" id="W5M0MpCehiHzreSzNTczkc9d"?>
<x:xmpmeta xmlns:x="adobe:ns:meta/" x:xmptk="Adobe XMP Core 5.6-c142 79.160924, 2017/07/13-01:06:39        ">
   <rdf:RDF xmlns:rdf="http://www.w3.org/1999/02/22-rdf-syntax-ns#">
      <rdf:Description rdf:about=""/>
   </rdf:RDF>
</x:xmpmeta>
                                                                                                    
                                                                                                    
                                                                                                    
                                                                                                    
                                                                                                    
                                                                                                    
                                                                                                    
                                                                                                    
                                                                                                    
                                                                                                    
                                                                                                    
                                                                                                    
                                                                                                    
                                                                                                    
                                                                                                    
                                                                                                    
                                                                                                    
                                                                                                    
                                                                                                    
                                                                                                    
                           
<?xpacket end="w"?></metadata>
<defs>
    <style>
      .cls-1 {
        fill: #424b5a;
        fill-rule: evenodd;
        filter: url(#filter);
      }
    </style>
    <filter id="filter" x="394" y="8243" width="22.438" height="17" filterUnits="userSpaceOnUse">
      <feFlood result="flood" flood-color="#8a102e"/>
      <feComposite result="composite" operator="in" in2="SourceGraphic"/>
      <feBlend result="blend" in2="SourceGraphic"/>
    </filter>
  </defs>
  <path id="Twitter" class="cls-1" d="M411.928,8245.79l-0.04-.02a3.75,3.75,0,0,0-2.95-1.16l-0.04-.08,0.027-.02a3.387,3.387,0,0,0,1.818-.76,0.26,0.26,0,0,0-.242-0.38,5.494,5.494,0,0,0-1.415.36c0.539-.36.741-0.61,0.62-0.74a2.753,2.753,0,0,0-1.7.85,1.094,1.094,0,0,0,.256-0.64,4.031,4.031,0,0,0-.755.66,12.294,12.294,0,0,0-1.1,1.46l-0.013.03a13.243,13.243,0,0,0-1.522,3.66l-0.108.1-0.027.02a5.62,5.62,0,0,0-1.576-1.41,17.559,17.559,0,0,0-2.586-1.42,21.162,21.162,0,0,0-3.287-1.44,3.453,3.453,0,0,0,1.805,3.07v0.01a4.05,4.05,0,0,0-1.239.2c0.081,1.19.9,2.02,2.452,2.46l-0.014.03a1.722,1.722,0,0,0-1.5.64,2.688,2.688,0,0,0,2.721,1.49,1.91,1.91,0,0,0-.593.45,0.963,0.963,0,0,0-.242.92,1.441,1.441,0,0,0,1.522.72l0.04,0.06-0.013.03a5.553,5.553,0,0,1-4.634,1.85l-0.027.02a5.838,5.838,0,0,1-3.569-1.65,11.172,11.172,0,0,0,5.105,4.17,11.736,11.736,0,0,0,7.246.18h0.041a11.585,11.585,0,0,0,5.966-4.32,8.745,8.745,0,0,0,1.414-3.26,2.884,2.884,0,0,0,2.654-1.1l-0.013-.03a5.11,5.11,0,0,1-2.384-.14v-0.14c1.293-.15,2.06-0.59,2.3-1.3a3.43,3.43,0,0,1-2.667.03,6.127,6.127,0,0,0-1.738-3.46" transform="translate(-394 -8243)"/>
</svg>
